<svg width="346" height="39" viewBox="0 0 346 39" fill="none" xmlns="http://www.w3.org/2000/svg">
<path d="M28.876 31.384C27.148 31.384 25.5373 31.1067 24.044 30.552C22.572 29.976 21.292 29.1653 20.204 28.12C19.116 27.0747 18.2627 25.848 17.644 24.44C17.0467 23.032 16.748 21.4853 16.748 19.8C16.748 18.1147 17.0467 16.568 17.644 15.16C18.2627 13.752 19.116 12.5253 20.204 11.48C21.3133 10.4347 22.604 9.63467 24.076 9.08C25.548 8.504 27.1587 8.216 28.908 8.216C30.8493 8.216 32.5987 8.55733 34.156 9.24C35.7347 9.90133 37.0573 10.8827 38.124 12.184L34.796 15.256C34.028 14.3813 33.1747 13.7307 32.236 13.304C31.2973 12.856 30.2733 12.632 29.164 12.632C28.1187 12.632 27.1587 12.8027 26.284 13.144C25.4093 13.4853 24.652 13.976 24.012 14.616C23.372 15.256 22.8707 16.0133 22.508 16.888C22.1667 17.7627 21.996 18.7333 21.996 19.8C21.996 20.8667 22.1667 21.8373 22.508 22.712C22.8707 23.5867 23.372 24.344 24.012 24.984C24.652 25.624 25.4093 26.1147 26.284 26.456C27.1587 26.7973 28.1187 26.968 29.164 26.968C30.2733 26.968 31.2973 26.7547 32.236 26.328C33.1747 25.88 34.028 25.208 34.796 24.312L38.124 27.384C37.0573 28.6853 35.7347 29.6773 34.156 30.36C32.5987 31.0427 30.8387 31.384 28.876 31.384ZM41.6248 31V8.6H51.3208C53.3261 8.6 55.0541 8.93067 56.5048 9.592C57.9554 10.232 59.0754 11.16 59.8648 12.376C60.6541 13.592 61.0488 15.0427 61.0488 16.728C61.0488 18.392 60.6541 19.832 59.8648 21.048C59.0754 22.2427 57.9554 23.16 56.5048 23.8C55.0541 24.44 53.3261 24.76 51.3208 24.76H44.5048L46.8088 22.488V31H41.6248ZM55.8647 31L50.2648 22.872H55.8008L61.4648 31H55.8647ZM46.8088 23.064L44.5048 20.632H51.0328C52.6328 20.632 53.8274 20.2907 54.6168 19.608C55.4061 18.904 55.8008 17.944 55.8008 16.728C55.8008 15.4907 55.4061 14.5307 54.6168 13.848C53.8274 13.1653 52.6328 12.824 51.0328 12.824H44.5048L46.8088 10.36V23.064ZM75.108 31.384C71.9293 31.384 69.444 30.4987 67.652 28.728C65.86 26.9573 64.964 24.4293 64.964 21.144V8.6H70.148V20.952C70.148 23.0853 70.5853 24.6213 71.46 25.56C72.3347 26.4987 73.5613 26.968 75.14 26.968C76.7187 26.968 77.9453 26.4987 78.82 25.56C79.6947 24.6213 80.132 23.0853 80.132 20.952V8.6H85.252V21.144C85.252 24.4293 84.356 26.9573 82.564 28.728C80.772 30.4987 78.2867 31.384 75.108 31.384ZM90.3748 31V8.6H100.551C102.983 8.6 105.127 9.06933 106.983 10.008C108.839 10.9253 110.289 12.216 111.335 13.88C112.38 15.544 112.903 17.5173 112.903 19.8C112.903 22.0613 112.38 24.0347 111.335 25.72C110.289 27.384 108.839 28.6853 106.983 29.624C105.127 30.5413 102.983 31 100.551 31H90.3748ZM95.5588 26.744H100.295C101.788 26.744 103.079 26.4667 104.167 25.912C105.276 25.336 106.129 24.5253 106.727 23.48C107.345 22.4347 107.655 21.208 107.655 19.8C107.655 18.3707 107.345 17.144 106.727 16.12C106.129 15.0747 105.276 14.2747 104.167 13.72C103.079 13.144 101.788 12.856 100.295 12.856H95.5588V26.744ZM136.755 31.384C134.984 31.384 133.341 31.096 131.827 30.52C130.333 29.944 129.032 29.1333 127.923 28.088C126.835 27.0427 125.981 25.816 125.363 24.408C124.765 23 124.467 21.464 124.467 19.8C124.467 18.136 124.765 16.6 125.363 15.192C125.981 13.784 126.845 12.5573 127.955 11.512C129.064 10.4667 130.365 9.656 131.859 9.08C133.352 8.504 134.973 8.216 136.723 8.216C138.493 8.216 140.115 8.504 141.587 9.08C143.08 9.656 144.371 10.4667 145.459 11.512C146.568 12.5573 147.432 13.784 148.051 15.192C148.669 16.5787 148.979 18.1147 148.979 19.8C148.979 21.464 148.669 23.0107 148.051 24.44C147.432 25.848 146.568 27.0747 145.459 28.12C144.371 29.144 143.08 29.944 141.587 30.52C140.115 31.096 138.504 31.384 136.755 31.384ZM136.723 26.968C137.725 26.968 138.643 26.7973 139.475 26.456C140.328 26.1147 141.075 25.624 141.715 24.984C142.355 24.344 142.845 23.5867 143.187 22.712C143.549 21.8373 143.731 20.8667 143.731 19.8C143.731 18.7333 143.549 17.7627 143.187 16.888C142.845 16.0133 142.355 15.256 141.715 14.616C141.096 13.976 140.36 13.4853 139.507 13.144C138.653 12.8027 137.725 12.632 136.723 12.632C135.72 12.632 134.792 12.8027 133.939 13.144C133.107 13.4853 132.371 13.976 131.731 14.616C131.091 15.256 130.589 16.0133 130.227 16.888C129.885 17.7627 129.715 18.7333 129.715 19.8C129.715 20.8453 129.885 21.816 130.227 22.712C130.589 23.5867 131.08 24.344 131.699 24.984C132.339 25.624 133.085 26.1147 133.939 26.456C134.792 26.7973 135.72 26.968 136.723 26.968ZM152.875 31V8.6H162.571C164.576 8.6 166.304 8.93067 167.755 9.592C169.205 10.232 170.325 11.16 171.115 12.376C171.904 13.592 172.299 15.0427 172.299 16.728C172.299 18.392 171.904 19.832 171.115 21.048C170.325 22.264 169.205 23.2027 167.755 23.864C166.304 24.504 164.576 24.824 162.571 24.824H155.755L158.059 22.488V31H152.875ZM158.059 23.064L155.755 20.6H162.283C163.883 20.6 165.077 20.2587 165.867 19.576C166.656 18.8933 167.051 17.944 167.051 16.728C167.051 15.4907 166.656 14.5307 165.867 13.848C165.077 13.1653 163.883 12.824 162.283 12.824H155.755L158.059 10.36V23.064ZM180.768 17.624H191.552V21.656H180.768V17.624ZM181.152 26.84H193.344V31H176V8.6H192.928V12.76H181.152V26.84ZM197.469 31V8.6H207.165C209.17 8.6 210.898 8.93067 212.349 9.592C213.799 10.232 214.919 11.16 215.709 12.376C216.498 13.592 216.893 15.0427 216.893 16.728C216.893 18.392 216.498 19.832 215.709 21.048C214.919 22.2427 213.799 23.16 212.349 23.8C210.898 24.44 209.17 24.76 207.165 24.76H200.349L202.653 22.488V31H197.469ZM211.708 31L206.109 22.872H211.645L217.309 31H211.708ZM202.653 23.064L200.349 20.632H206.877C208.477 20.632 209.671 20.2907 210.461 19.608C211.25 18.904 211.645 17.944 211.645 16.728C211.645 15.4907 211.25 14.5307 210.461 13.848C209.671 13.1653 208.477 12.824 206.877 12.824H200.349L202.653 10.36V23.064ZM218.056 31L228.04 8.6H233.16L243.176 31H237.736L229.544 11.224H231.592L223.368 31H218.056ZM223.048 26.2L224.424 22.264H235.944L237.352 26.2H223.048ZM249.015 31V12.824H241.847V8.6H261.367V12.824H254.199V31H249.015ZM264.156 31V8.6H269.34V31H264.156ZM285.536 31.384C283.765 31.384 282.123 31.096 280.608 30.52C279.115 29.944 277.813 29.1333 276.704 28.088C275.616 27.0427 274.763 25.816 274.144 24.408C273.547 23 273.248 21.464 273.248 19.8C273.248 18.136 273.547 16.6 274.144 15.192C274.763 13.784 275.627 12.5573 276.736 11.512C277.845 10.4667 279.147 9.656 280.64 9.08C282.133 8.504 283.755 8.216 285.504 8.216C287.275 8.216 288.896 8.504 290.368 9.08C291.861 9.656 293.152 10.4667 294.24 11.512C295.349 12.5573 296.213 13.784 296.832 15.192C297.451 16.5787 297.76 18.1147 297.76 19.8C297.76 21.464 297.451 23.0107 296.832 24.44C296.213 25.848 295.349 27.0747 294.24 28.12C293.152 29.144 291.861 29.944 290.368 30.52C288.896 31.096 287.285 31.384 285.536 31.384ZM285.504 26.968C286.507 26.968 287.424 26.7973 288.256 26.456C289.109 26.1147 289.856 25.624 290.496 24.984C291.136 24.344 291.627 23.5867 291.968 22.712C292.331 21.8373 292.512 20.8667 292.512 19.8C292.512 18.7333 292.331 17.7627 291.968 16.888C291.627 16.0133 291.136 15.256 290.496 14.616C289.877 13.976 289.141 13.4853 288.288 13.144C287.435 12.8027 286.507 12.632 285.504 12.632C284.501 12.632 283.573 12.8027 282.72 13.144C281.888 13.4853 281.152 13.976 280.512 14.616C279.872 15.256 279.371 16.0133 279.008 16.888C278.667 17.7627 278.496 18.7333 278.496 19.8C278.496 20.8453 278.667 21.816 279.008 22.712C279.371 23.5867 279.861 24.344 280.48 24.984C281.12 25.624 281.867 26.1147 282.72 26.456C283.573 26.7973 284.501 26.968 285.504 26.968ZM301.656 31V8.6H305.944L319.16 24.728H317.08V8.6H322.2V31H317.944L304.696 14.872H306.776V31H301.656ZM334.86 31.384C333.068 31.384 331.35 31.1493 329.708 30.68C328.065 30.1893 326.742 29.56 325.74 28.792L327.5 24.888C328.46 25.5707 329.59 26.136 330.892 26.584C332.214 27.0107 333.548 27.224 334.892 27.224C335.916 27.224 336.737 27.128 337.356 26.936C337.996 26.7227 338.465 26.4347 338.764 26.072C339.062 25.7093 339.212 25.2933 339.212 24.824C339.212 24.2267 338.977 23.7573 338.508 23.416C338.038 23.0533 337.42 22.7653 336.652 22.552C335.884 22.3173 335.03 22.104 334.092 21.912C333.174 21.6987 332.246 21.4427 331.308 21.144C330.39 20.8453 329.548 20.4613 328.78 19.992C328.012 19.5227 327.382 18.904 326.892 18.136C326.422 17.368 326.188 16.3867 326.188 15.192C326.188 13.912 326.529 12.7493 327.212 11.704C327.916 10.6373 328.961 9.79467 330.348 9.176C331.756 8.536 333.516 8.216 335.628 8.216C337.036 8.216 338.422 8.38667 339.788 8.728C341.153 9.048 342.358 9.53867 343.404 10.2L341.804 14.136C340.758 13.5387 339.713 13.1013 338.668 12.824C337.622 12.5253 336.598 12.376 335.596 12.376C334.593 12.376 333.772 12.4933 333.132 12.728C332.492 12.9627 332.033 13.272 331.756 13.656C331.478 14.0187 331.34 14.4453 331.34 14.936C331.34 15.512 331.574 15.9813 332.044 16.344C332.513 16.6853 333.132 16.9627 333.9 17.176C334.668 17.3893 335.51 17.6027 336.428 17.816C337.366 18.0293 338.294 18.2747 339.212 18.552C340.15 18.8293 341.004 19.2027 341.772 19.672C342.54 20.1413 343.158 20.76 343.628 21.528C344.118 22.296 344.364 23.2667 344.364 24.44C344.364 25.6987 344.012 26.8507 343.308 27.896C342.604 28.9413 341.548 29.784 340.14 30.424C338.753 31.064 336.993 31.384 334.86 31.384Z" fill="black"/>
<path d="M3 0L3 39" stroke="#F8D442" stroke-width="6"/>
</svg>
